<svg width="26" height="26" viewBox="0 0 26 26" fill="none" xmlns="http://www.w3.org/2000/svg">
<path d="M19.4163 6.67383H19.428M7.16634 1.42383H18.833C22.0547 1.42383 24.6663 4.0355 24.6663 7.25716V18.9238C24.6663 22.1455 22.0547 24.7572 18.833 24.7572H7.16634C3.94468 24.7572 1.33301 22.1455 1.33301 18.9238V7.25716C1.33301 4.0355 3.94468 1.42383 7.16634 1.42383ZM17.6663 12.3555C17.8103 13.3264 17.6445 14.3181 17.1924 15.1893C16.7403 16.0606 16.025 16.7671 15.1482 17.2084C14.2715 17.6498 13.2779 17.8034 12.3088 17.6474C11.3397 17.4915 10.4444 17.0339 9.75032 16.3398C9.05624 15.6458 8.5987 14.7505 8.44275 13.7814C8.28681 12.8123 8.44042 11.8187 8.88172 10.9419C9.32303 10.0652 10.0296 9.34986 10.9008 8.89778C11.7721 8.44569 12.7637 8.27985 13.7347 8.42383C14.7251 8.57069 15.642 9.0322 16.35 9.74019C17.058 10.4482 17.5195 11.3651 17.6663 12.3555Z" stroke="#FCF5EF" stroke-width="2" stroke-linecap="round" stroke-linejoin="round"/>
</svg>
