<svg width="16" height="21" viewBox="0 0 16 21" fill="none" xmlns="http://www.w3.org/2000/svg">
<path d="M8 10.0903C8.55 10.0903 9.02083 9.8945 9.4125 9.50283C9.80417 9.11117 10 8.64033 10 8.09033C10 7.54033 9.80417 7.0695 9.4125 6.67783C9.02083 6.28617 8.55 6.09033 8 6.09033C7.45 6.09033 6.97917 6.28617 6.5875 6.67783C6.19583 7.0695 6 7.54033 6 8.09033C6 8.64033 6.19583 9.11117 6.5875 9.50283C6.97917 9.8945 7.45 10.0903 8 10.0903ZM8 17.4403C10.0333 15.5737 11.5417 13.8778 12.525 12.3528C13.5083 10.8278 14 9.47367 14 8.29033C14 6.47367 13.4208 4.98617 12.2625 3.82783C11.1042 2.6695 9.68333 2.09033 8 2.09033C6.31667 2.09033 4.89583 2.6695 3.7375 3.82783C2.57917 4.98617 2 6.47367 2 8.29033C2 9.47367 2.49167 10.8278 3.475 12.3528C4.45833 13.8778 5.96667 15.5737 8 17.4403ZM8 20.0903C5.31667 17.807 3.3125 15.6862 1.9875 13.7278C0.6625 11.7695 0 9.957 0 8.29033C0 5.79033 0.804167 3.79867 2.4125 2.31533C4.02083 0.831999 5.88333 0.090332 8 0.090332C10.1167 0.090332 11.9792 0.831999 13.5875 2.31533C15.1958 3.79867 16 5.79033 16 8.29033C16 9.957 15.3375 11.7695 14.0125 13.7278C12.6875 15.6862 10.6833 17.807 8 20.0903Z" fill="#FCF5EF"/>
</svg>
