<svg width="70" height="55" viewBox="0 0 70 55" fill="none" xmlns="http://www.w3.org/2000/svg">
<path d="M69.9916 33.4457C69.9246 33.6136 69.8995 33.808 69.8073 33.8699C68.5339 34.6476 67.2604 35.4429 65.945 36.1323C65.8026 36.2118 65.3083 35.7876 65.124 35.496C64.5962 34.6564 64.1856 33.7373 63.6495 32.9066C62.1665 30.5824 60.139 30.2731 58.2121 32.2085C56.8632 33.5518 55.6819 35.0806 54.4587 36.5653C50.387 41.5054 46.2818 46.4101 42.2771 51.412C38.4316 56.2107 31.4275 56.1842 27.5904 51.4032C22.6892 45.2877 17.6456 39.3049 12.6523 33.2778C12.2167 32.7476 11.7224 32.2615 11.2029 31.8285C9.61948 30.5205 7.91874 30.6708 6.66203 32.3322C5.9499 33.269 5.40532 34.3471 4.844 35.3899C4.44185 36.1411 4.03133 36.3885 3.26055 35.8495C2.38923 35.2397 1.40062 34.8067 0.529306 34.2057C0.252831 34.0113 -0.0822905 33.3838 0.018246 33.1806C1.50954 30.1671 3.09299 27.1977 6.38556 25.9782C9.89595 24.6791 12.9958 25.713 15.4171 28.4173C19.2794 32.7387 22.8987 37.2988 26.6185 41.7616C28.2857 43.7677 29.9195 45.8003 31.6035 47.7975C33.6142 50.1836 36.3035 50.1836 38.2891 47.7799C43.0897 41.9737 47.8652 36.1499 52.6575 30.3261C54.4001 28.2052 56.2684 26.2609 58.9913 25.6512C62.3006 24.9177 65.0486 26.1107 67.1934 28.7354C68.2071 29.9815 68.9276 31.5015 69.7738 32.8978C69.8743 33.0657 69.9246 33.2601 70 33.4369L69.9916 33.4457Z" fill="url(#paint0_linear_192_1233)"/>
<path d="M27.6409 29.8755C27.666 25.6336 30.9753 22.1782 34.9549 22.2223C39.0183 22.2754 42.2438 25.6866 42.2187 29.9197C42.2019 34.0732 38.901 37.5993 35.0554 37.5816C30.8748 37.5551 27.6074 34.1616 27.6409 29.8755Z" fill="url(#paint1_linear_192_1233)"/>
<path d="M46.9771 18.4929C50.588 15.4705 54.0062 12.5807 57.4747 9.75278C57.7177 9.54952 58.5052 9.6644 58.7231 9.92069C59.6446 10.9988 60.4489 12.183 61.3957 13.4645C59.8625 14.7547 58.3796 16.0008 56.8966 17.2468C54.9529 18.8729 53.0009 20.4901 51.0739 22.1251C50.5461 22.5758 50.1356 22.7437 49.6496 22.0544C48.8286 20.8967 47.9489 19.7743 46.9771 18.4841V18.4929Z" fill="url(#paint2_linear_192_1233)"/>
<path d="M32.3744 13.7561C32.1901 13.924 31.9806 14.2422 31.6958 14.3482C30.6234 14.7547 29.5175 15.064 28.4367 15.4617C27.7329 15.718 27.3978 15.4882 27.18 14.7547C25.9568 10.6807 24.7168 6.61555 23.4518 2.55921C23.2088 1.78152 23.3596 1.38384 24.1304 1.08337C28.0764 -0.454324 28.0597 -0.471999 29.3331 3.76109C30.1961 6.63322 31.0925 9.49652 31.9806 12.3687C32.0979 12.7487 32.2068 13.1375 32.3827 13.7561H32.3744Z" fill="url(#paint3_linear_192_1233)"/>
<path d="M22.8653 18.4664C21.7426 19.9952 20.754 21.3297 19.6565 22.8144C15.8864 19.6771 12.2084 16.6194 8.61426 13.6235C8.6729 13.3407 8.66453 13.2877 8.68966 13.2524C11.446 8.79834 11.4293 8.82485 15.3167 12.1654C17.7463 14.251 20.2346 16.2747 22.8653 18.4575V18.4664Z" fill="url(#paint4_linear_192_1233)"/>
<path d="M46.617 1.72852C46.4914 2.20574 46.4327 2.45318 46.3573 2.69179C45.1509 6.61557 43.9109 10.5305 42.7548 14.472C42.4532 15.5059 42.0091 15.6562 41.0959 15.3734C37.2672 14.1892 37.2755 14.2245 38.5239 10.2389C39.4622 7.22534 40.4089 4.22065 41.2886 1.18944C41.6154 0.0582624 42.1097 -0.259882 43.1569 0.208497C43.9863 0.579665 44.8828 0.782924 45.729 1.11874C46.0641 1.2513 46.3489 1.5341 46.617 1.72852Z" fill="url(#paint5_linear_192_1233)"/>
<defs>
<linearGradient id="paint0_linear_192_1233" x1="-0.00688811" y1="40.2063" x2="69.9916" y2="40.2063" gradientUnits="userSpaceOnUse">
<stop stop-color="#FEF200"/>
<stop offset="0.14" stop-color="#FFD600"/>
<stop offset="0.29" stop-color="#FFBB00"/>
<stop offset="0.43" stop-color="#FFA014"/>
<stop offset="0.57" stop-color="#FF812E"/>
<stop offset="0.71" stop-color="#FF594D"/>
<stop offset="0.86" stop-color="#FF2F6C"/>
<stop offset="1" stop-color="#ED008C"/>
</linearGradient>
<linearGradient id="paint1_linear_192_1233" x1="27.6325" y1="29.902" x2="42.2187" y2="29.902" gradientUnits="userSpaceOnUse">
<stop stop-color="#FEF200"/>
<stop offset="0.14" stop-color="#FFD600"/>
<stop offset="0.29" stop-color="#FFBB00"/>
<stop offset="0.43" stop-color="#FFA014"/>
<stop offset="0.57" stop-color="#FF812E"/>
<stop offset="0.71" stop-color="#FF594D"/>
<stop offset="0.86" stop-color="#FF2F6C"/>
<stop offset="1" stop-color="#ED008C"/>
</linearGradient>
<linearGradient id="paint2_linear_192_1233" x1="46.9771" y1="16.0891" x2="61.3873" y2="16.0891" gradientUnits="userSpaceOnUse">
<stop stop-color="#FEF200"/>
<stop offset="0.14" stop-color="#FFD600"/>
<stop offset="0.29" stop-color="#FFBB00"/>
<stop offset="0.43" stop-color="#FFA014"/>
<stop offset="0.57" stop-color="#FF812E"/>
<stop offset="0.71" stop-color="#FF594D"/>
<stop offset="0.86" stop-color="#FF2F6C"/>
<stop offset="1" stop-color="#ED008C"/>
</linearGradient>
<linearGradient id="paint3_linear_192_1233" x1="23.3428" y1="7.85277" x2="32.3744" y2="7.85277" gradientUnits="userSpaceOnUse">
<stop stop-color="#FEF200"/>
<stop offset="0.14" stop-color="#FFD600"/>
<stop offset="0.29" stop-color="#FFBB00"/>
<stop offset="0.43" stop-color="#FFA014"/>
<stop offset="0.57" stop-color="#FF812E"/>
<stop offset="0.71" stop-color="#FF594D"/>
<stop offset="0.86" stop-color="#FF2F6C"/>
<stop offset="1" stop-color="#ED008C"/>
</linearGradient>
<linearGradient id="paint4_linear_192_1233" x1="8.61426" y1="16.2924" x2="22.8653" y2="16.2924" gradientUnits="userSpaceOnUse">
<stop stop-color="#FEF200"/>
<stop offset="0.14" stop-color="#FFD600"/>
<stop offset="0.29" stop-color="#FFBB00"/>
<stop offset="0.43" stop-color="#FFA014"/>
<stop offset="0.57" stop-color="#FF812E"/>
<stop offset="0.71" stop-color="#FF594D"/>
<stop offset="0.86" stop-color="#FF2F6C"/>
<stop offset="1" stop-color="#ED008C"/>
</linearGradient>
<linearGradient id="paint5_linear_192_1233" x1="37.7782" y1="7.74675" x2="46.617" y2="7.74675" gradientUnits="userSpaceOnUse">
<stop stop-color="#FEF200"/>
<stop offset="0.14" stop-color="#FFD600"/>
<stop offset="0.29" stop-color="#FFBB00"/>
<stop offset="0.43" stop-color="#FFA014"/>
<stop offset="0.57" stop-color="#FF812E"/>
<stop offset="0.71" stop-color="#FF594D"/>
<stop offset="0.86" stop-color="#FF2F6C"/>
<stop offset="1" stop-color="#ED008C"/>
</linearGradient>
</defs>
</svg>
