<svg width="20" height="17" viewBox="0 0 20 17" fill="none" xmlns="http://www.w3.org/2000/svg">
<path d="M2 16.0903C1.45 16.0903 0.979167 15.8945 0.5875 15.5028C0.195833 15.1112 0 14.6403 0 14.0903V2.09033C0 1.54033 0.195833 1.0695 0.5875 0.677832C0.979167 0.286165 1.45 0.090332 2 0.090332H18C18.55 0.090332 19.0208 0.286165 19.4125 0.677832C19.8042 1.0695 20 1.54033 20 2.09033V14.0903C20 14.6403 19.8042 15.1112 19.4125 15.5028C19.0208 15.8945 18.55 16.0903 18 16.0903H2ZM10 9.09033L2 4.09033V14.0903H18V4.09033L10 9.09033ZM10 7.09033L18 2.09033H2L10 7.09033ZM2 4.09033V2.09033V14.0903V4.09033Z" fill="#FCF5EF"/>
</svg>
