<svg width="18" height="19" viewBox="0 0 18 19" fill="none" xmlns="http://www.w3.org/2000/svg">
<path d="M16.95 18.0903C14.8667 18.0903 12.8083 17.6362 10.775 16.7278C8.74167 15.8195 6.89167 14.532 5.225 12.8653C3.55833 11.1987 2.27083 9.34867 1.3625 7.31533C0.454167 5.282 0 3.22367 0 1.14033C0 0.840332 0.1 0.590332 0.3 0.390332C0.5 0.190332 0.75 0.090332 1.05 0.090332H5.1C5.33333 0.090332 5.54167 0.169499 5.725 0.327832C5.90833 0.486165 6.01667 0.673665 6.05 0.890332L6.7 4.39033C6.73333 4.657 6.725 4.882 6.675 5.06533C6.625 5.24867 6.53333 5.407 6.4 5.54033L3.975 7.99033C4.30833 8.607 4.70417 9.20283 5.1625 9.77783C5.62083 10.3528 6.125 10.907 6.675 11.4403C7.19167 11.957 7.73333 12.4362 8.3 12.8778C8.86667 13.3195 9.46667 13.7237 10.1 14.0903L12.45 11.7403C12.6 11.5903 12.7958 11.4778 13.0375 11.4028C13.2792 11.3278 13.5167 11.307 13.75 11.3403L17.2 12.0403C17.4333 12.107 17.625 12.2278 17.775 12.4028C17.925 12.5778 18 12.7737 18 12.9903V17.0403C18 17.3403 17.9 17.5903 17.7 17.7903C17.5 17.9903 17.25 18.0903 16.95 18.0903ZM3.025 6.09033L4.675 4.44033L4.25 2.09033H2.025C2.10833 2.77367 2.225 3.44867 2.375 4.11533C2.525 4.782 2.74167 5.44033 3.025 6.09033ZM11.975 15.0403C12.625 15.3237 13.2875 15.5487 13.9625 15.7153C14.6375 15.882 15.3167 15.9903 16 16.0403V13.8403L13.65 13.3653L11.975 15.0403Z" fill="#FCF5EF"/>
</svg>
